<svg id="Calque_1" data-name="Calque 1" xmlns="http://www.w3.org/2000/svg" viewBox="0 0 1000 1000"><defs><style>.cls-1{fill:#126782;}.cls-2{fill:#fd9e02;}</style></defs><path d="M915.79,360.27V461.81a4.59,4.59,0,0,1-3.59,4.35L581.27,550.82a4.9,4.9,0,0,0-2.81,1.93L504.13,660a5.13,5.13,0,0,1-8.26,0L421.55,552.75a4.9,4.9,0,0,0-2.81-1.93L87.8,466.16a4.59,4.59,0,0,1-3.59-4.35V360.27A4.8,4.8,0,0,1,90,355.83l332.23,57.74A5,5,0,0,1,425,415l71.38,73a5.18,5.18,0,0,0,7.28,0L575,415a5,5,0,0,1,2.73-1.41L910,355.83A4.8,4.8,0,0,1,915.79,360.27Z"/><path d="M644,598.58l183.64-47.09c2.21-.56,4.16,1.32,4.67,4.49l13,80.93c.74,4.6-1.86,9.5-5,9.51l-209.17.69c-3.29,0-5.08-5.21-3.38-9.87l12.55-34.53C641,600.53,642.44,599,644,598.58Z"/><path d="M358.21,598.58,174.56,551.49c-2.21-.56-4.16,1.32-4.67,4.49l-13,80.93c-.74,4.6,1.86,9.5,5,9.51l209.17.69c3.29,0,5.08-5.21,3.38-9.87L362,602.71C361.17,600.53,359.75,599,358.21,598.58Z"/><path class="cls-1" d="M501.71,103.41l157,230.26a2.08,2.08,0,0,1-1.35,3.21l-79.58,14.49a2.12,2.12,0,0,1-1.89-.62l-74.4-79a2.08,2.08,0,0,0-3,0l-72.62,79a2.1,2.1,0,0,1-1.89.64l-81.37-14.5a2.08,2.08,0,0,1-1.35-3.22l157-230.24A2.07,2.07,0,0,1,501.71,103.41Z"/><path class="cls-2" d="M805.46,896.35,709.39,711.86a2.13,2.13,0,0,1,1.89-3.12l68.26-.08a2.14,2.14,0,0,1,2.11,1.82L809.46,895A2.13,2.13,0,0,1,805.46,896.35Z"/><path class="cls-2" d="M194.54,896.35l96.07-184.49a2.13,2.13,0,0,0-1.89-3.12l-68.26-.08a2.14,2.14,0,0,0-2.11,1.82L190.54,895A2.13,2.13,0,0,0,194.54,896.35Z"/></svg>